<mxfile host="Electron" agent="Mozilla/5.0 (X11; Linux x86_64) AppleWebKit/537.36 (KHTML, like Gecko) draw.io/26.0.4 Chrome/128.0.6613.186 Electron/32.2.5 Safari/537.36" version="26.0.4">
  <diagram name="Page-1" id="lxeJQ_-VfMQQATzrOj_g">
    <mxGraphModel dx="1114" dy="1198" grid="1" gridSize="10" guides="1" tooltips="1" connect="1" arrows="1" fold="1" page="1" pageScale="1" pageWidth="850" pageHeight="1100" math="0" shadow="0">
      <root>
        <mxCell id="0" />
        <mxCell id="1" parent="0" />
        <mxCell id="JFuTy0Em5oB6NGUpWTWE-11" style="edgeStyle=orthogonalEdgeStyle;rounded=0;orthogonalLoop=1;jettySize=auto;html=1;" edge="1" parent="1" source="JFuTy0Em5oB6NGUpWTWE-5" target="JFuTy0Em5oB6NGUpWTWE-6">
          <mxGeometry relative="1" as="geometry" />
        </mxCell>
        <mxCell id="JFuTy0Em5oB6NGUpWTWE-5" value="Resources" style="rounded=0;whiteSpace=wrap;html=1;strokeColor=#FF0000;fillColor=none;dashed=1;verticalAlign=top;fontStyle=1" vertex="1" parent="1">
          <mxGeometry x="290" y="330" width="260" height="280" as="geometry" />
        </mxCell>
        <mxCell id="JFuTy0Em5oB6NGUpWTWE-9" style="edgeStyle=orthogonalEdgeStyle;rounded=0;orthogonalLoop=1;jettySize=auto;html=1;" edge="1" parent="1" source="JFuTy0Em5oB6NGUpWTWE-1" target="JFuTy0Em5oB6NGUpWTWE-5">
          <mxGeometry relative="1" as="geometry" />
        </mxCell>
        <mxCell id="JFuTy0Em5oB6NGUpWTWE-1" value="AWS Resource Access&lt;div&gt;Manager (RAM)&lt;/div&gt;" style="sketch=0;points=[[0,0,0],[0.25,0,0],[0.5,0,0],[0.75,0,0],[1,0,0],[0,1,0],[0.25,1,0],[0.5,1,0],[0.75,1,0],[1,1,0],[0,0.25,0],[0,0.5,0],[0,0.75,0],[1,0.25,0],[1,0.5,0],[1,0.75,0]];outlineConnect=0;fontColor=#232F3E;fillColor=#DD344C;strokeColor=#ffffff;dashed=0;verticalLabelPosition=middle;verticalAlign=middle;align=right;html=1;fontSize=12;fontStyle=0;aspect=fixed;shape=mxgraph.aws4.resourceIcon;resIcon=mxgraph.aws4.resource_access_manager;labelPosition=left;spacingRight=5;" vertex="1" parent="1">
          <mxGeometry x="150" y="431" width="78" height="78" as="geometry" />
        </mxCell>
        <mxCell id="JFuTy0Em5oB6NGUpWTWE-2" value="Amazon VPC" style="sketch=0;points=[[0,0,0],[0.25,0,0],[0.5,0,0],[0.75,0,0],[1,0,0],[0,1,0],[0.25,1,0],[0.5,1,0],[0.75,1,0],[1,1,0],[0,0.25,0],[0,0.5,0],[0,0.75,0],[1,0.25,0],[1,0.5,0],[1,0.75,0]];outlineConnect=0;fontColor=#232F3E;fillColor=#8C4FFF;strokeColor=#ffffff;dashed=0;verticalLabelPosition=bottom;verticalAlign=top;align=center;html=1;fontSize=12;fontStyle=0;aspect=fixed;shape=mxgraph.aws4.resourceIcon;resIcon=mxgraph.aws4.vpc;" vertex="1" parent="1">
          <mxGeometry x="320" y="492" width="78" height="78" as="geometry" />
        </mxCell>
        <mxCell id="JFuTy0Em5oB6NGUpWTWE-3" value="Amazon Aurora" style="sketch=0;points=[[0,0,0],[0.25,0,0],[0.5,0,0],[0.75,0,0],[1,0,0],[0,1,0],[0.25,1,0],[0.5,1,0],[0.75,1,0],[1,1,0],[0,0.25,0],[0,0.5,0],[0,0.75,0],[1,0.25,0],[1,0.5,0],[1,0.75,0]];outlineConnect=0;fontColor=#232F3E;fillColor=#C925D1;strokeColor=#ffffff;dashed=0;verticalLabelPosition=bottom;verticalAlign=top;align=center;html=1;fontSize=12;fontStyle=0;aspect=fixed;shape=mxgraph.aws4.resourceIcon;resIcon=mxgraph.aws4.aurora;" vertex="1" parent="1">
          <mxGeometry x="440" y="370" width="78" height="78" as="geometry" />
        </mxCell>
        <mxCell id="JFuTy0Em5oB6NGUpWTWE-4" value="AWS Firewall Manager" style="sketch=0;points=[[0,0,0],[0.25,0,0],[0.5,0,0],[0.75,0,0],[1,0,0],[0,1,0],[0.25,1,0],[0.5,1,0],[0.75,1,0],[1,1,0],[0,0.25,0],[0,0.5,0],[0,0.75,0],[1,0.25,0],[1,0.5,0],[1,0.75,0]];outlineConnect=0;fontColor=#232F3E;fillColor=#DD344C;strokeColor=#ffffff;dashed=0;verticalLabelPosition=bottom;verticalAlign=top;align=center;html=1;fontSize=12;fontStyle=0;aspect=fixed;shape=mxgraph.aws4.resourceIcon;resIcon=mxgraph.aws4.network_firewall;" vertex="1" parent="1">
          <mxGeometry x="440" y="492" width="78" height="78" as="geometry" />
        </mxCell>
        <mxCell id="JFuTy0Em5oB6NGUpWTWE-13" style="edgeStyle=orthogonalEdgeStyle;rounded=0;orthogonalLoop=1;jettySize=auto;html=1;" edge="1" parent="1" source="JFuTy0Em5oB6NGUpWTWE-6" target="JFuTy0Em5oB6NGUpWTWE-12">
          <mxGeometry relative="1" as="geometry" />
        </mxCell>
        <mxCell id="JFuTy0Em5oB6NGUpWTWE-6" value="Choose&lt;div&gt;Permissions&lt;/div&gt;" style="sketch=0;outlineConnect=0;fontColor=#232F3E;gradientColor=none;fillColor=#DD344C;strokeColor=none;dashed=0;verticalLabelPosition=bottom;verticalAlign=top;align=center;html=1;fontSize=12;fontStyle=0;aspect=fixed;pointerEvents=1;shape=mxgraph.aws4.permissions;" vertex="1" parent="1">
          <mxGeometry x="620" y="431" width="62" height="78" as="geometry" />
        </mxCell>
        <mxCell id="JFuTy0Em5oB6NGUpWTWE-12" value="Specific Users" style="sketch=0;outlineConnect=0;fontColor=#232F3E;gradientColor=none;fillColor=#232F3D;strokeColor=none;dashed=0;verticalLabelPosition=bottom;verticalAlign=top;align=center;html=1;fontSize=12;fontStyle=0;aspect=fixed;pointerEvents=1;shape=mxgraph.aws4.users;" vertex="1" parent="1">
          <mxGeometry x="740" y="431" width="78" height="78" as="geometry" />
        </mxCell>
      </root>
    </mxGraphModel>
  </diagram>
</mxfile>
